<?xml version="1.0" encoding="utf-8"?>
<!-- Generator: Adobe Illustrator 17.0.0, SVG Export Plug-In . SVG Version: 6.00 Build 0)  -->
<!DOCTYPE svg PUBLIC "-//W3C//DTD SVG 1.1//EN" "http://www.w3.org/Graphics/SVG/1.1/DTD/svg11.dtd">
<svg version="1.1" id="Capa_1" xmlns="http://www.w3.org/2000/svg" xmlns:xlink="http://www.w3.org/1999/xlink" x="0px" y="0px"
	 width="520.349px" height="520.349px" viewBox="0 0 520.349 520.349" enable-background="new 0 0 520.349 520.349"
	 xml:space="preserve">
<g>
	<path fill="#FFFFFF" d="M395.946,69.282H173.901c-4.903,0-8.882,3.979-8.882,8.882V210.95h12.216
		c-3.673-4.69-5.668-10.436-5.668-16.484c-0.004-7.164,2.788-13.899,7.857-18.963c1.043-1.043,2.181-1.971,3.363-2.821V87.046
		h204.277v6.381l-93.257,67.71v289.929l93.765-68.079c1.193,3.5,4.472,6.037,8.375,6.037c4.905,0,8.882-3.981,8.882-8.882V78.164
		C404.828,73.257,400.851,69.282,395.946,69.282z M329.038,312.854c-4.189,0-7.68-5.17-8.578-12.095h-10v-7.771h10.139
		c1.062-6.501,4.415-11.284,8.43-11.284c4.87,0,8.813,6.969,8.813,15.577C337.851,305.88,333.904,312.854,329.038,312.854z
		 M179.428,300.013c1.045,1.036,2.177,1.965,3.355,2.806v77.325c0,4.901-3.981,8.882-8.882,8.882c-4.903,0-8.882-3.981-8.882-8.882
		V264.551h12.216C169.028,275.063,169.752,290.328,179.428,300.013z M242.955,229.513c3.534,3.534,3.534,9.251,0,12.785
		l-43.285,43.29c-1.763,1.757-4.076,2.645-6.39,2.649c-2.313-0.004-4.628-0.885-6.391-2.649c-3.53-3.534-3.525-9.254,0-12.781
		l27.862-27.864h-90.195c-4.991,0-9.036-4.044-9.036-9.036c0-4.991,4.04-9.038,9.04-9.038h90.185l-27.857-27.862
		c-3.525-3.525-3.53-9.251,0-12.776c3.531-3.531,9.255-3.531,12.785,0L242.955,229.513z"/>
</g>
</svg>
