<?xml version="1.0" standalone="no"?><!-- Generator: Gravit.io --><svg xmlns="http://www.w3.org/2000/svg" xmlns:xlink="http://www.w3.org/1999/xlink" style="isolation:isolate" viewBox="124.826 424.826 358.174 358.174" width="358.174" height="358.174"><g><g><g><path d=" M 449.589 783 L 158.236 783 C 139.797 782.968 124.857 768.029 124.826 749.589 L 124.826 458.236 C 124.857 439.797 139.797 424.857 158.236 424.826 L 449.532 424.826 C 467.994 424.826 482.968 439.775 483 458.236 L 483 749.532 C 483 767.994 468.051 782.968 449.589 783 L 449.589 783 Z " fill="rgb(255,255,255)"/></g></g><path d=" M 225.115 539.442 L 182.134 539.442 C 174.254 539.442 167.807 532.994 167.807 525.115 L 167.807 482.134 C 167.807 474.254 174.254 467.807 182.134 467.807 L 225.115 467.807 C 232.994 467.807 239.442 474.254 239.442 482.134 L 239.442 525.115 C 239.442 532.994 232.994 539.442 225.115 539.442 Z  M 325.403 539.442 L 282.422 539.442 C 274.543 539.442 268.095 532.994 268.095 525.115 L 268.095 482.134 C 268.095 474.254 274.543 467.807 282.422 467.807 L 325.403 467.807 C 333.283 467.807 339.73 474.254 339.73 482.134 L 339.73 525.115 C 339.73 532.994 333.283 539.442 325.403 539.442 Z  M 425.692 539.442 L 382.711 539.442 C 374.831 539.442 368.384 532.994 368.384 525.115 L 368.384 482.134 C 368.384 474.254 374.831 467.807 382.711 467.807 L 425.692 467.807 C 433.572 467.807 440.019 474.254 440.019 482.134 L 440.019 525.115 C 440.019 532.994 433.572 539.442 425.692 539.442 Z  M 225.115 639.73 L 182.134 639.73 C 174.254 639.73 167.807 633.283 167.807 625.403 L 167.807 582.422 C 167.807 574.543 174.254 568.095 182.134 568.095 L 225.115 568.095 C 232.994 568.095 239.442 574.543 239.442 582.422 L 239.442 625.403 C 239.442 633.283 232.994 639.73 225.115 639.73 Z  M 325.403 639.73 L 282.422 639.73 C 274.543 639.73 268.095 633.283 268.095 625.403 L 268.095 582.422 C 268.095 574.543 274.543 568.095 282.422 568.095 L 325.403 568.095 C 333.283 568.095 339.73 574.543 339.73 582.422 L 339.73 625.403 C 339.73 633.283 333.283 639.73 325.403 639.73 Z  M 225.115 740.019 L 182.134 740.019 C 174.254 740.019 167.807 733.572 167.807 725.692 L 167.807 682.711 C 167.807 674.831 174.254 668.384 182.134 668.384 L 225.115 668.384 C 232.994 668.384 239.442 674.831 239.442 682.711 L 239.442 725.692 C 239.442 733.572 232.994 740.019 225.115 740.019 Z  M 325.403 740.019 L 282.422 740.019 C 274.543 740.019 268.095 733.572 268.095 725.692 L 268.095 682.711 C 268.095 674.831 274.543 668.384 282.422 668.384 L 325.403 668.384 C 333.283 668.384 339.73 674.831 339.73 682.711 L 339.73 725.692 C 339.73 733.572 333.283 740.019 325.403 740.019 Z " fill="rgb(74,74,74)"/><path d=" M 429.406 641.178 L 386.425 641.178 C 378.545 641.178 372.098 634.731 372.098 626.851 L 372.098 583.871 C 372.098 575.991 378.545 569.544 386.425 569.544 L 429.406 569.544 C 437.286 569.544 443.733 575.991 443.733 583.871 L 443.733 626.851 C 443.733 634.731 437.286 641.178 429.406 641.178 Z  M 429.406 741.467 L 386.425 741.467 C 378.545 741.467 372.098 735.02 372.098 727.14 L 372.098 684.159 C 372.098 676.279 378.545 669.832 386.425 669.832 L 429.406 669.832 C 437.286 669.832 443.733 676.279 443.733 684.159 L 443.733 727.14 C 443.733 735.02 437.286 741.467 429.406 741.467 Z " fill="rgb(74,74,74)"/></g></svg>