<?xml version="1.0" encoding="utf-8"?>
<!-- Generator: Adobe Illustrator 21.0.0, SVG Export Plug-In . SVG Version: 6.00 Build 0)  -->
<svg version="1.1" id="Capa_1" xmlns="http://www.w3.org/2000/svg" xmlns:xlink="http://www.w3.org/1999/xlink" x="0px" y="0px"
	 viewBox="0 0 59 59" style="enable-background:new 0 0 59 59;" xml:space="preserve">
<style type="text/css">
	.st0{fill:none;stroke:#556080;stroke-width:2;stroke-linecap:round;stroke-linejoin:round;stroke-miterlimit:10;}
	.st1{fill:#8697CB;}
	.st2{fill:#FBD490;}
	.st3{fill:#EEAF4B;}
</style>
<line class="st0" x1="29.5" y1="10" x2="29.5" y2="4"/>
<line class="st0" x1="29.5" y1="24" x2="29.5" y2="58"/>
<line class="st0" x1="29.5" y1="18" x2="29.5" y2="14"/>
<polygon class="st1" points="28.5,4 27.5,3 27.5,1 28.5,0 30.5,0 31.5,1 31.5,3 30.5,4 "/>
<path class="st2" d="M3.5,16h5c8,0,9.4-6,21-6s13.1,6,21,6h5"/>
<path class="st3" d="M55.5,17h-52c-0.6,0-1-0.4-1-1c0-0.6,0.4-1,1-1h52c0.6,0,1,0.4,1,1C56.5,16.6,56.1,17,55.5,17z"/>
<path class="st2" d="M55.5,18h-5c-8,0-9.4,6-21,6s-13.1-6-21-6h-5"/>
<path class="st3" d="M55.5,19h-52c-0.6,0-1-0.4-1-1s0.4-1,1-1h52c0.6,0,1,0.4,1,1S56.1,19,55.5,19z"/>
<line class="st0" x1="29.5" y1="46" x2="41.5" y2="58"/>
<line class="st0" x1="29.5" y1="46" x2="17.5" y2="58"/>
</svg>
