<?xml version="1.0" encoding="utf-8"?>
<!-- Generator: Adobe Illustrator 21.0.0, SVG Export Plug-In . SVG Version: 6.00 Build 0)  -->
<svg version="1.1" id="Layer_1" xmlns="http://www.w3.org/2000/svg" xmlns:xlink="http://www.w3.org/1999/xlink" x="0px" y="0px"
	 viewBox="0 0 304.1 344.1" style="enable-background:new 0 0 304.1 344.1;" xml:space="preserve">
<style type="text/css">
	.st0{fill:#E5B855;}
	.st1{fill:#D97B7D;}
	.st2{fill:#C77172;}
	.st3{fill:#DFE3E5;}
	.st4{fill:#495059;}
	.st5{fill:#F7CF66;}
	.st6{fill:#EBC35C;}
	.st7{fill:#AD9386;}
	.st8{fill:#F8EED1;}
	.st9{fill:#F0E3C0;}
</style>
<path class="st0" d="M288.7,155.3c8.2,7.8-62.2,7.8-135.4,7.8S3.6,159.3,8.7,154.8c4.3-3.7,71.4-12.3,144.6-12.3
	S285.1,151.9,288.7,155.3z"/>
<path class="st1" d="M20.8,187.1H276v117.2c0,0-94.9,9.9-127.1,9.9c-31.6,0-128.1-9.9-128.1-9.9L20.8,187.1L20.8,187.1z"/>
<path class="st2" d="M20.8,187.1v117.2l128.1,9.9c-52.6-26.5-53.3-90.3-42.7-127L20.8,187.1L20.8,187.1z"/>
<path class="st3" d="M212.2,291.8c-1.4,0-2.6-0.6-3.5-1.7L148.4,211l-60.3,79.1c-0.8,1.1-2.1,1.7-3.5,1.7s-2.6-0.6-3.5-1.7
	l-63.8-83.6c-1.5-1.9-1.1-4.6,0.8-6.1s4.6-1.1,6.1,0.8l60.3,79.1l60.3-79.1c0.8-1.1,2.1-1.7,3.5-1.7s2.6,0.6,3.5,1.7l60.4,79.1
	l60.3-79.1c1.5-1.9,4.2-2.3,6.1-0.8s2.3,4.2,0.8,6.1l-63.8,83.6C214.9,291.2,213.6,291.8,212.2,291.8z"/>
<g>
	<path class="st4" d="M148.4,208.2c-2.4,0-4.3-1.9-4.3-4.3v-16.8c0-2.4,1.9-4.3,4.3-4.3c2.4,0,4.3,1.9,4.3,4.3v16.8
		C152.8,206.3,150.8,208.2,148.4,208.2z"/>
	<path class="st4" d="M20.8,208.2c-2.4,0-4.3-1.9-4.3-4.3v-16.8c0-2.4,1.9-4.3,4.3-4.3s4.3,1.9,4.3,4.3v16.8
		C25.2,206.3,23.2,208.2,20.8,208.2z"/>
	<path class="st4" d="M84.6,308.6c-2.4,0-4.3-1.9-4.3-4.3v-16.8c0-2.4,1.9-4.3,4.3-4.3s4.3,1.9,4.3,4.3v16.8
		C89,306.6,87,308.6,84.6,308.6z"/>
	<path class="st4" d="M276.1,208.2c-2.4,0-4.3-1.9-4.3-4.3v-16.8c0-2.4,1.9-4.3,4.3-4.3s4.3,1.9,4.3,4.3v16.8
		C280.4,206.3,278.5,208.2,276.1,208.2z"/>
	<path class="st4" d="M212.2,308.6c-2.4,0-4.3-1.9-4.3-4.3v-16.8c0-2.4,1.9-4.3,4.3-4.3c2.4,0,4.3,1.9,4.3,4.3v16.8
		C216.6,306.6,214.6,308.6,212.2,308.6z"/>
</g>
<path class="st5" d="M279.7,152.8c0,0-71.8,6.3-128,6.3c-67.1,0-134.5-6.3-134.5-6.3C7.7,152.8,0,160.5,0,170s7.7,17.2,17.2,17.2
	c0,0,67.5,6.3,135.6,6.3c59.5,0,126.9-6.3,126.9-6.3c9.5,0,17.2-7.7,17.2-17.2S289.2,152.8,279.7,152.8z"/>
<path class="st6" d="M17.2,152.8C7.7,152.8,0,160.5,0,170s7.8,15.6,17.2,17.2c37.3,6.2,150,6.2,150,6.2
	c-18.8-8.2-26.7-26.2-18.7-34.2C148.4,159.1,47.1,154.8,17.2,152.8L17.2,152.8z"/>
<path class="st5" d="M279.7,304.2c0,0-67.5,5.7-132.2,5.7c-62.7,0-130.4-5.7-130.4-5.7c-9.5,0-17.2,7.7-17.2,17.2
	s7.7,17.2,17.2,17.2c0,0,67.5,5.7,129.7,5.7c65.4,0,132.9-5.7,132.9-5.7c9.5,0,17.2-7.7,17.2-17.2S289.2,304.2,279.7,304.2z"/>
<path class="st6" d="M17.2,304.2c-9.5,0-17.2,7.7-17.2,17.2s7.7,17.2,17.2,17.2l139.7,5.6c-18.8-8.2-3.1-26.2,4.9-34.2L17.2,304.2z"
	/>
<g>
	<path class="st7" d="M154.4,67.9v24.9l136,3.8c7.1,0.2,13-5.5,13-12.6v-7.3c0-7.1-5.9-12.8-13-12.6L154.4,67.9z"/>
	<path class="st8" d="M144.3,57.4c17.8,0,25.8,10.3,25.8,22.9c0,12.7-8,22.9-25.8,22.9s-32.2-7.9-32.2-22.9
		C112,65.3,126.5,57.4,144.3,57.4z"/>
	<path class="st9" d="M167.7,91.4c-31.9,3.9-40.2-18.1-32.1-33.3C122,60.3,112,67.8,112,80.4c0,15.1,14.4,22.9,32.2,22.9
		C156.5,103.3,164.1,98.5,167.7,91.4z"/>
</g>
</svg>
