<?xml version="1.0" encoding="utf-8"?>
<!-- Generator: Adobe Illustrator 17.0.0, SVG Export Plug-In . SVG Version: 6.00 Build 0)  -->
<!DOCTYPE svg PUBLIC "-//W3C//DTD SVG 1.1//EN" "http://www.w3.org/Graphics/SVG/1.1/DTD/svg11.dtd">
<svg version="1.1" id="Layer_1" xmlns="http://www.w3.org/2000/svg" xmlns:xlink="http://www.w3.org/1999/xlink" x="0px" y="0px"
	 width="304.108px" height="344.119px" viewBox="0 0 304.108 344.119" enable-background="new 0 0 304.108 344.119"
	 xml:space="preserve">
<path fill="#D97B7D" d="M-345.168,188.413h255.22v117.155h-255.22V188.413z"/>
<path fill="#C77172" d="M-345.168,188.413v117.155h126.351c-52.608-26.501-51.593-80.425-41.002-117.155H-345.168z"/>
<path fill="#DFE3E5" d="M-153.752,293.137c-1.357,0-2.634-0.632-3.459-1.71l-60.347-79.068l-60.347,79.068
	c-0.824,1.078-2.102,1.71-3.459,1.71c-1.354,0-2.634-0.632-3.456-1.71l-63.806-83.598c-1.456-1.909-1.09-4.637,0.82-6.095
	c1.907-1.456,4.637-1.089,6.095,0.82l60.347,79.068l60.35-79.068c0.822-1.078,2.1-1.712,3.456-1.712
	c1.357,0,2.634,0.634,3.456,1.712l60.35,79.068l60.347-79.068c1.456-1.909,4.186-2.276,6.097-0.82
	c1.907,1.459,2.274,4.188,0.818,6.095l-63.806,83.598C-151.118,292.505-152.395,293.137-153.752,293.137z"/>
<g>
	<path fill="#495059" d="M-217.558,209.539c-2.401,0-4.349-1.946-4.349-4.349v-16.777c0-2.401,1.948-4.349,4.349-4.349
		c2.403,0,4.349,1.948,4.349,4.349v16.777C-213.21,207.593-215.155,209.539-217.558,209.539z"/>
	<path fill="#495059" d="M-345.168,209.539c-2.403,0-4.349-1.946-4.349-4.349v-16.777c0-2.401,1.946-4.349,4.349-4.349
		c2.401,0,4.349,1.948,4.349,4.349v16.777C-340.82,207.593-342.767,209.539-345.168,209.539z"/>
	<path fill="#495059" d="M-281.365,309.916c-2.401,0-4.349-1.948-4.349-4.349v-16.779c0-2.401,1.948-4.349,4.349-4.349
		c2.403,0,4.349,1.948,4.349,4.349v16.779C-277.016,307.968-278.961,309.916-281.365,309.916z"/>
	<path fill="#495059" d="M-89.948,209.539c-2.401,0-4.349-1.946-4.349-4.349v-16.777c0-2.401,1.948-4.349,4.349-4.349
		c2.403,0,4.349,1.948,4.349,4.349v16.777C-85.599,207.593-87.545,209.539-89.948,209.539z"/>
	<path fill="#495059" d="M-153.752,309.916c-2.403,0-4.349-1.948-4.349-4.349v-16.779c0-2.401,1.946-4.349,4.349-4.349
		c2.401,0,4.349,1.948,4.349,4.349v16.779C-149.403,307.968-151.351,309.916-153.752,309.916z"/>
</g>
<path fill="#F7CF66" d="M-86.277,154.093h-128.038H-348.84c-9.477,0-17.16,7.683-17.16,17.16c0,9.477,7.683,17.16,17.16,17.16
	h262.563c9.477,0,17.16-7.683,17.16-17.16C-69.117,161.776-76.8,154.093-86.277,154.093z"/>
<path fill="#EBC35C" d="M-348.84,154.093c-9.477,0-17.16,7.683-17.16,17.16c0,9.477,7.683,17.16,17.16,17.16h158.521
	c-18.834-8.218-20.229-26.272-12.222-34.322H-348.84V154.093z"/>
<path fill="#F7CF66" d="M-86.277,305.567H-348.84c-9.477,0-17.16,7.683-17.16,17.16c0,9.477,7.683,17.16,17.16,17.16h262.563
	c9.477,0,17.16-7.683,17.16-17.16C-69.117,313.25-76.8,305.567-86.277,305.567z"/>
<path fill="#EBC35C" d="M-348.84,305.567c-9.477,0-17.16,7.683-17.16,17.16c0,9.477,7.683,17.16,17.16,17.16h158.521
	c-18.834-8.218-20.229-26.272-12.222-34.32H-348.84z"/>
<g>
	<path fill="#AD9386" d="M-226.121,104.567l17.64,17.64l98.817-93.464c5.165-4.883,5.279-13.066,0.253-18.092l-5.152-5.152
		c-5.028-5.027-13.21-4.911-18.094,0.251L-226.121,104.567z"/>
	<path fill="#F8EED1" d="M-240.667,104.301c12.594-12.594,25.536-11.006,34.497-2.045c8.963,8.963,10.55,21.905-2.044,34.499
		c-12.592,12.592-28.358,17.243-39.028,6.573S-253.259,116.893-240.667,104.301z"/>
	<path fill="#F0E3C0" d="M-200.107,111.781c-19.794,25.33-41.205,15.627-46.236-0.842c-8.047,11.154-9.759,23.529-0.899,32.39
		c10.67,10.67,26.435,6.021,39.028-6.573C-199.588,128.13-197.617,119.342-200.107,111.781z"/>
</g>
<path fill="#E5B855" d="M288.707,155.299c8.176,7.787-62.241,7.787-135.403,7.787s-149.71-3.834-144.556-8.287
	c4.318-3.731,71.394-12.296,144.556-12.296S285.086,151.851,288.707,155.299z"/>
<path fill="#D97B7D" d="M20.832,187.079h255.22v117.155c0,0-94.906,9.851-127.123,9.851c-31.588,0-128.097-9.851-128.097-9.851
	V187.079z"/>
<path fill="#C77172" d="M20.832,187.079v117.155l128.097,9.851c-52.608-26.501-53.339-90.276-42.748-127.006H20.832z"/>
<path fill="#DFE3E5" d="M212.248,291.804c-1.357,0-2.634-0.632-3.459-1.71l-60.347-79.068l-60.347,79.068
	c-0.824,1.078-2.102,1.71-3.459,1.71c-1.354,0-2.634-0.632-3.456-1.71l-63.806-83.598c-1.456-1.909-1.089-4.637,0.82-6.095
	c1.907-1.456,4.637-1.089,6.095,0.82l60.347,79.068l60.35-79.068c0.822-1.078,2.1-1.712,3.456-1.712
	c1.357,0,2.634,0.634,3.456,1.712l60.35,79.068l60.347-79.068c1.456-1.909,4.186-2.276,6.097-0.82
	c1.907,1.459,2.274,4.188,0.818,6.095l-63.806,83.598C214.882,291.172,213.605,291.804,212.248,291.804z"/>
<g>
	<path fill="#495059" d="M148.442,208.206c-2.401,0-4.349-1.946-4.349-4.349v-16.777c0-2.401,1.948-4.349,4.349-4.349
		c2.403,0,4.349,1.948,4.349,4.349v16.777C152.79,206.26,150.845,208.206,148.442,208.206z"/>
	<path fill="#495059" d="M20.832,208.206c-2.403,0-4.349-1.946-4.349-4.349v-16.777c0-2.401,1.946-4.349,4.349-4.349
		c2.401,0,4.349,1.948,4.349,4.349v16.777C25.18,206.26,23.233,208.206,20.832,208.206z"/>
	<path fill="#495059" d="M84.635,308.583c-2.401,0-4.349-1.948-4.349-4.349v-16.779c0-2.401,1.948-4.349,4.349-4.349
		c2.403,0,4.349,1.948,4.349,4.349v16.779C88.984,306.635,87.039,308.583,84.635,308.583z"/>
	<path fill="#495059" d="M276.052,208.206c-2.401,0-4.349-1.946-4.349-4.349v-16.777c0-2.401,1.948-4.349,4.349-4.349
		c2.403,0,4.349,1.948,4.349,4.349v16.777C280.401,206.26,278.455,208.206,276.052,208.206z"/>
	<path fill="#495059" d="M212.248,308.583c-2.403,0-4.349-1.948-4.349-4.349v-16.779c0-2.401,1.946-4.349,4.349-4.349
		c2.401,0,4.349,1.948,4.349,4.349v16.779C216.597,306.635,214.649,308.583,212.248,308.583z"/>
</g>
<path fill="#F7CF66" d="M279.723,152.76c0,0-71.824,6.339-128.038,6.339c-67.05,0-134.526-6.339-134.526-6.339
	C7.683,152.76,0,160.443,0,169.92s7.683,17.16,17.16,17.16c0,0,67.476,6.339,135.63,6.339c59.457,0,126.933-6.339,126.933-6.339
	c9.477,0,17.16-7.683,17.16-17.16S289.2,152.76,279.723,152.76z"/>
<path fill="#EBC35C" d="M17.16,152.76C7.683,152.76,0,160.443,0,169.92s7.812,15.6,17.16,17.16
	c37.282,6.222,149.967,6.222,149.967,6.222c-18.834-8.218-26.692-26.159-18.685-34.209c0,0-101.333-4.34-131.282-6.335
	C17.159,152.757,17.16,152.76,17.16,152.76z"/>
<path fill="#F7CF66" d="M279.723,304.234c0,0-67.476,5.682-132.17,5.682c-62.673,0-130.393-5.682-130.393-5.682
	c-9.477,0-17.16,7.683-17.16,17.16s7.683,17.16,17.16,17.16c0,0,67.476,5.682,129.652,5.682c65.436,0,132.912-5.682,132.912-5.682
	c9.477,0,17.16-7.683,17.16-17.16S289.2,304.234,279.723,304.234z"/>
<path fill="#EBC35C" d="M17.16,304.234c-9.477,0-17.16,7.683-17.16,17.16s7.683,17.16,17.16,17.16l139.67,5.565
	c-18.834-8.218-3.062-26.155,4.945-34.203L17.16,304.234z"/>
<g>
	<path fill="#AD9386" d="M161.222,109.397l17.64,17.64l98.817-93.464c5.165-4.883,5.279-13.066,0.253-18.092l-5.152-5.152
		c-5.027-5.028-13.21-4.911-18.094,0.251L161.222,109.397z"/>
	<path fill="#F8EED1" d="M146.676,109.131c12.594-12.594,25.536-11.006,34.497-2.045c8.963,8.963,10.55,21.905-2.044,34.499
		c-12.592,12.592-28.358,17.243-39.028,6.573C129.431,137.488,134.084,121.723,146.676,109.131z"/>
	<path fill="#F0E3C0" d="M187.235,116.611c-19.794,25.33-41.205,15.627-46.236-0.842c-8.047,11.154-9.759,23.529-0.899,32.39
		c10.67,10.67,26.435,6.021,39.028-6.573C187.754,132.96,189.726,124.172,187.235,116.611z"/>
</g>
</svg>
